<?xml version="1.0" encoding="UTF-8"?><svg id="Calque_2" xmlns="http://www.w3.org/2000/svg" xmlns:xlink="http://www.w3.org/1999/xlink" viewBox="0 0 913.97 1000"><defs><style>.cls-1,.cls-2{fill:none;}.cls-2{clip-path:url(#clippath);}.cls-3{fill:url(#Dégradé_sans_nom_10);}</style><clipPath id="clippath"><path class="cls-1" d="m456.99,347.2l151.23,87.31v174.63l-151.23,87.31-151.23-87.31v-174.63l151.23-87.31Zm300.68-173.61l-32.16-18.57-85.11-49.14-32.18-18.57-75.62-43.66L456.99,0l-75.62,43.66-75.62,43.66-32.18,18.57-85.11,49.14-32.16,18.57L0,263.84v515.99l156.3,90.23,32.16,18.57,85.11,49.14,32.18,18.58,75.62,43.64v-211.77l-41.66-24.05-33.96-19.61-117.29-67.73v-310.02l117.29-67.73,33.96-19.59,41.66-24.07,75.62-43.64,75.62,43.64,41.66,24.07,33.96,19.59,117.29,67.73v310.02l-117.29,67.73-33.96,19.61-41.66,24.05v211.77l75.62-43.64,32.18-18.58,85.11-49.14,32.16-18.57,156.3-90.23V263.84l-156.3-90.25Z"/></clipPath><linearGradient id="Dégradé_sans_nom_10" x1="-21.51" y1="978.49" x2="935.48" y2="21.51" gradientUnits="userSpaceOnUse"><stop offset="0" stop-color="#3cf"/><stop offset="1" stop-color="#7c38e4"/></linearGradient></defs><g id="Logo_couleur"><g id="Logo"><g class="cls-2"><rect class="cls-3" width="913.97" height="1000"/></g></g></g></svg>