<?xml version="1.0" standalone="no"?>
<!DOCTYPE svg PUBLIC "-//W3C//DTD SVG 20010904//EN"
 "http://www.w3.org/TR/2001/REC-SVG-20010904/DTD/svg10.dtd">
<svg version="1.0" xmlns="http://www.w3.org/2000/svg"
 width="800.000000pt" height="800.000000pt" viewBox="0 0 800.000000 800.000000"
 preserveAspectRatio="xMidYMid meet">

<g transform="translate(0.000000,800.000000) scale(0.100000,-0.100000)"
fill="#000000" stroke="none">
<path d="M1080 6745 c0 -2 114 -157 254 -344 140 -186 373 -498 519 -693 145
-194 539 -721 876 -1172 l612 -818 -24 -27 c-152 -166 -2051 -2219 -2140
-2313 l-119 -128 260 0 260 0 169 182 c93 101 540 583 993 1073 453 490 826
891 830 893 7 3 389 -504 1240 -1645 l375 -502 878 -1 878 0 -89 118 c-49 64
-140 187 -203 272 -64 85 -365 488 -669 895 -1142 1527 -1411 1886 -1422 1904
-10 16 118 158 1045 1160 582 627 1057 1143 1057 1146 0 3 -115 5 -255 5
l-254 0 -917 -990 c-504 -544 -919 -990 -923 -990 -3 1 -75 94 -160 208 -84
114 -417 559 -739 990 l-585 782 -873 0 c-481 0 -874 -2 -874 -5z m1695 -563
c77 -103 441 -590 809 -1082 368 -492 814 -1088 991 -1325 580 -777 1336
-1787 1472 -1967 l133 -178 -400 0 -401 0 -476 638 c-464 621 -842 1126 -1793
2397 -918 1228 -1256 1680 -1264 1693 -6 9 75 12 391 12 l398 0 140 -188z"/>
</g>
</svg>
